<svg xmlns="http://www.w3.org/2000/svg" viewBox="0 0 1280 640">
  <defs>
    <pattern id="grid" width="40" height="40" patternUnits="userSpaceOnUse">
      <path d="M40 0H0v40" fill="none" stroke="#dfe5ed" stroke-width="1"/>
    </pattern>
    <linearGradient id="panel" x1="80" y1="80" x2="432" y2="560" gradientUnits="userSpaceOnUse">
      <stop offset="0" stop-color="#14372f"/>
      <stop offset="1" stop-color="#285f50"/>
    </linearGradient>
  </defs>
  <rect width="1280" height="640" fill="#eef2f6"/>
  <rect x="80" y="80" width="1120" height="480" rx="22" fill="#ffffff"/>
  <rect x="80" y="80" width="1120" height="480" rx="22" fill="url(#grid)" opacity="0.42"/>
  <rect x="80" y="80" width="354" height="480" rx="22" fill="url(#panel)"/>
  <path d="M434 80v480" stroke="#d9dee8" stroke-width="2"/>
  <text x="488" y="146" fill="#667085" font-family="Inter, Arial, sans-serif" font-size="22">Moonweave Research</text>
  <g transform="translate(86 150) scale(.72)">
    <path d="M130 78h220l82 82v270H130z" fill="#ffffff" stroke="#111827" stroke-width="24" stroke-linejoin="round"/>
    <path d="M350 78v90h82" fill="none" stroke="#8792a0" stroke-width="18" stroke-linejoin="round"/>
    <path d="M188 218h160M188 276h198M188 334h132" stroke="#667085" stroke-width="22" stroke-linecap="round"/>
    <path d="M82 430h348" stroke="#2f6f5f" stroke-width="22" stroke-linecap="round"/>
    <path d="M106 388c74-58 138-66 204-24 58 38 108 26 160-38" fill="none" stroke="#2f6f5f" stroke-width="20" stroke-linecap="round"/>
    <circle cx="106" cy="388" r="18" fill="#ffffff" stroke="#2f6f5f" stroke-width="10"/>
    <circle cx="310" cy="364" r="16" fill="#ffffff" stroke="#2f5f9f" stroke-width="10"/>
    <circle cx="470" cy="326" r="18" fill="#ffffff" stroke="#2f6f5f" stroke-width="10"/>
  </g>
  <text x="488" y="280" fill="#111827" font-family="Inter, Arial, sans-serif" font-size="80" font-weight="760">groundcheck</text>
  <text x="492" y="348" fill="#4b5563" font-family="Inter, Arial, sans-serif" font-size="32">Verification skills for academic research</text>
  <text x="492" y="414" fill="#2f6f5f" font-family="Inter, Arial, sans-serif" font-size="25">claims grounded in fetched evidence</text>
  <path d="M492 468h386" stroke="#cfd6e2" stroke-width="3"/>
</svg>
