<svg xmlns="http://www.w3.org/2000/svg" viewBox="0 0 1280 640">
  <rect width="1280" height="640" fill="#f7f8fa"/>
  <path d="M80 80h1120v480H80z" fill="#ffffff" stroke="#d9dee8" stroke-width="2"/>
  <path d="M120 128h1040M120 512h1040" stroke="#e6eaf0" stroke-width="2"/>
  <text x="120" y="134" fill="#667085" font-family="Inter, Arial, sans-serif" font-size="22" letter-spacing="0">Moonweave Research</text>
  <g transform="translate(124 154) scale(.82)">
    <path d="M142 86h214l72 72v268H142z" fill="#ffffff" stroke="#1f2937" stroke-width="18" stroke-linejoin="round"/>
    <path d="M356 86v80h72" fill="none" stroke="#9aa3af" stroke-width="14" stroke-linejoin="round"/>
    <path d="M194 216h156M194 270h190M194 324h124" stroke="#667085" stroke-width="18" stroke-linecap="round"/>
    <path d="M96 426h320" stroke="#2f6f5f" stroke-width="16" stroke-linecap="round"/>
    <path d="M118 384c70-48 126-54 184-20 54 32 96 24 150-34" fill="none" stroke="#2f6f5f" stroke-width="14" stroke-linecap="round"/>
    <circle cx="118" cy="384" r="14" fill="#ffffff" stroke="#2f6f5f" stroke-width="8"/>
    <circle cx="302" cy="364" r="12" fill="#ffffff" stroke="#2f6f5f" stroke-width="8"/>
    <circle cx="452" cy="330" r="14" fill="#ffffff" stroke="#2f6f5f" stroke-width="8"/>
  </g>
  <text x="560" y="260" fill="#111827" font-family="Inter, Arial, sans-serif" font-size="78" font-weight="760">groundcheck</text>
  <text x="564" y="326" fill="#4b5563" font-family="Inter, Arial, sans-serif" font-size="32">Verification skills for academic research</text>
  <text x="564" y="388" fill="#2f6f5f" font-family="Inter, Arial, sans-serif" font-size="24">claims grounded in fetched evidence</text>
  <path d="M564 440h360" stroke="#d9dee8" stroke-width="2"/>
</svg>
